<svg viewBox="-.02 .04 256.07 245.94" xmlns="http://www.w3.org/2000/svg"><linearGradient id="s7ConfA"><stop offset="0" stop-color="#0052cc"/><stop offset=".92" stop-color="#2380fb"/><stop offset="1" stop-color="#2684ff"/></linearGradient><linearGradient id="s7ConfB" gradientUnits="userSpaceOnUse" x1="243.35" x2="83.15" y1="261.62" y2="169.55"><stop offset="0" stop-color="#0052cc"/><stop offset=".92" stop-color="#2380fb"/><stop offset="1" stop-color="#2684ff"/></linearGradient><linearGradient id="s7ConfC" gradientUnits="userSpaceOnUse" x1="12.63" x2="172.87" y1="-15.48" y2="76.59"><stop offset="0" stop-color="#0052cc"/><stop offset=".92" stop-color="#2380fb"/><stop offset="1" stop-color="#2684ff"/></linearGradient><path d="m9.11 187.79c-2.64 4.3-5.63 9.34-7.99 13.33a8.13 8.13 0 0 0 2.67 11.88l53.03 32.69a8.13 8.13 0 0 0 11.27-2.75c2.14-3.56 4.85-8.17 7.76-13.09 21.02-34.47 42.32-30.25 80.37-12.16l52.6 24.94a8.13 8.13 0 0 0 10.97-4.07l25.25-56.93a8.13 8.13 0 0 0-4.58-10.66c-11.09-5.22-33.16-15.49-52.94-25.17-71.95-34.71-132.66-32.42-179.12 42.99z" fill="url(#s7ConfB)"/><path d="m246.88 58.38c2.67-4.3 5.66-9.33 7.99-13.32a8.13 8.13 0 0 0-2.86-11.07l-52.95-32.69a8.13 8.13 0 0 0-11.28 2.87c-2.09 3.56-4.85 8.17-7.76 13.09-21.1 34.63-42.2 30.41-80.29 12.32l-52.55-24.95a8.13 8.13 0 0 0-10.98 3.88l-25.25 57.09a8.19 8.19 0 0 0 3.88 10.69c11.13 5.23 33.2 15.49 52.94 25.18 71.76 34.7 132.66 32.42 179.09-43z" fill="url(#s7ConfC)"/></svg>